<?xml version="1.0" encoding="UTF-8" standalone="no"?><!DOCTYPE svg PUBLIC "-//W3C//DTD SVG 1.1//EN" "http://www.w3.org/Graphics/SVG/1.1/DTD/svg11.dtd"><svg width="100%" height="100%" viewBox="0 0 938 563" version="1.1" xmlns="http://www.w3.org/2000/svg" xmlns:xlink="http://www.w3.org/1999/xlink" xml:space="preserve" xmlns:serif="http://www.serif.com/" style="fill-rule:evenodd;clip-rule:evenodd;stroke-linejoin:round;stroke-miterlimit:2;"><g><path d="M287.125,556.3l362.879,0l0,-58.133l61.062,0l-0.292,-98.642l-484.421,0l-0.292,98.642l61.063,0l0,58.133Z" style="fill:#fff;"/><path d="M656.204,562.5l-375.279,0l0,-58.129l-61.083,0l0.017,-6.204l0.296,-98.642l0.017,-6.2l496.788,0l0.017,6.2l0.296,98.642l0.017,6.204l-61.083,0l0,58.129Zm-362.875,-12.4l350.471,0l0,-58.133l61.05,0l-0.258,-86.242l-472.054,0l-0.258,86.242l61.05,0l0,58.133Z" style="fill:#e2be2c;fill-rule:nonzero;"/><rect x="164.7" y="133.533" width="608.608" height="305.625" style="fill:#0b6032;"/><path d="M0,4.021l387.533,0.008l6.2,0l0,86.229l-0.846,1.458l-26.129,44.921l-1.808,3.1l-194.046,0l0,293.221l596.204,0l0,-293.221l-196.896,0l-1.75,-3.346l-23.483,-44.917l-0.704,-1.346l0,-1.512l0.042,-78.471l0,-6.208l6.2,0.008l383.854,0.325l0,12.4l-377.658,-0.321l-0.033,70.754l21.033,40.229l201.8,0l0,318.025l-621.012,0l0,-318.025l199.358,-0l23.475,-40.358l0,-70.546l-381.333,-0.008l0,-12.4Z" style="fill:#e2be2c;fill-rule:nonzero;"/><rect x="41.392" y="32.688" width="324.125" height="16.737" style="fill:#e2be2c;fill-rule:nonzero;"/><rect x="77.504" y="62.633" width="288.892" height="16.738" style="fill:#e2be2c;fill-rule:nonzero;"/><path d="M115.379,92.579l236.042,0l9.579,-0.171l-9.579,16.908l-236.042,0l0,-16.737Z" style="fill:#e2be2c;fill-rule:nonzero;"/><rect x="573.667" y="32.688" width="324.121" height="16.737" style="fill:#e2be2c;fill-rule:nonzero;"/><rect x="572.783" y="62.633" width="288.892" height="16.738" style="fill:#e2be2c;fill-rule:nonzero;"/><path d="M823.8,109.317l-236.042,0l-8.896,-16.908l8.896,0.171l236.042,0l0,16.737Z" style="fill:#e2be2c;fill-rule:nonzero;"/><path d="M468.125,70.121c53.604,0 97.325,43.721 97.325,97.325c0,53.604 -43.721,97.321 -97.325,97.321c-53.604,0 -97.325,-43.717 -97.325,-97.321c0,-53.604 43.721,-97.325 97.325,-97.325Z" style="fill:#e2be2c;"/><path d="M437.221,237.521c3.35,-0.6 6.692,-1.1 10.025,-1.496c-5.192,-22.621 -7.971,-45.346 -8.096,-68.167c-0.125,-22.867 2.404,-45.892 7.829,-69.075c-3.279,-0.396 -6.525,-0.887 -9.75,-1.462c-3.733,-0.671 -7.554,-1.471 -11.45,-2.425c-28.517,48.363 -28.525,96.725 -0.012,145.087c3.762,-0.942 7.587,-1.767 11.454,-2.463Zm14.717,5.1c-4.5,0.425 -8.996,1.042 -13.467,1.846c-4.412,0.796 -8.9,1.8 -13.471,3.025l-2.571,0.688l-1.375,-2.267c-31.792,-52.308 -31.792,-104.625 0,-156.933l1.358,-2.242l2.558,0.662c4.467,1.158 8.971,2.138 13.492,2.946l0.017,0c4.542,0.812 8.954,1.425 13.225,1.846l4.071,0.404l-0.979,3.958c-5.925,23.888 -8.687,47.646 -8.558,71.275c0.133,23.642 3.158,47.125 8.8,70.446l0.958,3.963l-4.058,0.383Z" style="fill:#0b6032;fill-rule:nonzero;"/><path d="M468.65,234.821c4.75,0.033 9.542,0.279 14.388,0.708c5.925,-22.15 9.212,-44.554 9.437,-67.233c0.229,-22.708 -2.617,-45.671 -8.929,-68.917c-4.854,0.433 -9.7,0.671 -14.563,0.696c-4.858,0.025 -9.829,-0.154 -14.9,-0.567c-5.267,22.604 -7.883,45.237 -7.846,67.896c0.038,22.658 2.733,45.308 8.088,67.929c4.837,-0.371 9.621,-0.55 14.325,-0.513Zm16.658,8.021c-5.496,-0.579 -11.062,-0.896 -16.687,-0.933c-5.65,-0.042 -11.217,0.196 -16.683,0.712l-3.037,0.288l-0.729,-2.958c-5.971,-24.196 -8.979,-48.383 -9.021,-72.546c-0.042,-24.142 2.887,-48.325 8.779,-72.525l0.725,-2.983l3.05,0.296c5.738,0.567 11.492,0.825 17.25,0.796c5.733,-0.029 11.35,-0.354 16.833,-0.937l2.963,-0.317l0.817,2.879c7.067,24.917 10.238,49.483 9.996,73.737c-0.242,24.238 -3.9,48.2 -10.492,71.917l-0.804,2.888l-2.958,-0.313Z" style="fill:#0b6032;fill-rule:nonzero;"/><path d="M499.908,97.133c-3.079,0.567 -6.167,1.058 -9.254,1.463c6.108,22.967 9.037,45.925 8.908,68.863c-0.125,22.933 -3.317,45.888 -9.408,68.842c3.113,0.4 6.242,0.879 9.383,1.442c3.729,0.671 7.392,1.442 10.992,2.296c15.1,-24.242 22.679,-48.446 22.692,-72.596c0.012,-24.142 -7.533,-48.333 -22.675,-72.562c-3.45,0.837 -6.996,1.587 -10.638,2.254Zm-14.121,-5.083c4.354,-0.463 8.638,-1.088 12.846,-1.858c4.142,-0.763 8.367,-1.704 12.658,-2.804l2.458,-0.633l1.388,2.154c16.808,26.129 25.183,52.313 25.167,78.533c-0.013,26.225 -8.417,52.404 -25.167,78.542l-1.371,2.142l-2.463,-0.621c-4.433,-1.112 -8.779,-2.054 -13.013,-2.817c-4.287,-0.767 -8.617,-1.388 -12.983,-1.846l-4.175,-0.437l1.129,-4.029c6.621,-23.633 10.079,-47.287 10.213,-70.946c0.133,-23.65 -3.054,-47.292 -9.717,-70.908l-1.138,-4.025l4.167,-0.446Z" style="fill:#0b6032;fill-rule:nonzero;"/><path d="M561.008,138.375c-3.513,1.942 -7.187,3.487 -10.933,4.721c-4.642,1.533 -9.458,2.608 -14.254,3.408l-1.167,-6.971c4.433,-0.746 8.892,-1.742 13.208,-3.163c3.746,-1.233 7.367,-2.779 10.742,-4.75c0.879,2.213 1.683,4.467 2.404,6.754Z" style="fill:#0b6032;fill-rule:nonzero;"/><path d="M557.442,206.046c-3.446,-2.054 -7.037,-3.575 -10.746,-4.75c-4.158,-1.312 -8.467,-2.208 -12.921,-2.954l1.167,-6.975c4.779,0.8 9.408,1.762 13.883,3.175c3.829,1.213 7.563,2.771 11.217,4.85c-0.788,2.258 -1.654,4.475 -2.6,6.654Z" style="fill:#0b6032;fill-rule:nonzero;"/><path d="M513.025,240.654c1.921,0.846 3.808,2.033 5.5,3.321c1.646,1.25 3.133,2.621 4.3,3.887c-1.987,1.358 -4.029,2.642 -6.121,3.85c-0.729,-0.704 -1.558,-1.429 -2.467,-2.117c-1.271,-0.967 -2.671,-1.854 -4.062,-2.467l2.85,-6.475Z" style="fill:#0b6032;fill-rule:nonzero;"/><path d="M425.463,247.258c-1.608,0.771 -3.554,1.817 -5.279,3.021c-0.483,0.338 -0.933,0.675 -1.35,1.017c-2.096,-1.242 -4.15,-2.554 -6.146,-3.942c1.004,-1.05 2.183,-2.017 3.425,-2.883c2.058,-1.433 4.379,-2.683 6.3,-3.604l3.05,6.392Z" style="fill:#0b6032;fill-rule:nonzero;"/><path d="M376.55,200.371c3.708,-2.125 7.508,-3.712 11.396,-4.946c4.475,-1.412 9.104,-2.371 13.879,-3.171l1.167,6.975c-4.45,0.742 -8.758,1.637 -12.917,2.95c-3.75,1.187 -7.379,2.721 -10.854,4.812c-0.971,-2.171 -1.862,-4.371 -2.671,-6.621Z" style="fill:#0b6032;fill-rule:nonzero;"/><path d="M378.362,129.879c3.346,2.033 7.092,3.712 10.967,5.079c4.8,1.692 9.8,2.896 14.537,3.688l-1.162,6.975c-5.113,-0.854 -10.521,-2.158 -15.725,-3.992c-3.879,-1.367 -7.658,-3.042 -11.146,-5.046c0.763,-2.275 1.604,-4.508 2.529,-6.704Z" style="fill:#0b6032;fill-rule:nonzero;"/><path d="M422.783,94.104c-2.125,-1.075 -4.221,-2.221 -5.979,-3.404l-0.012,0c-1.571,-1.054 -2.892,-2.175 -3.813,-3.362c1.95,-1.35 3.963,-2.629 6.013,-3.833c0.417,0.383 1.025,0.837 1.758,1.329l-0.004,0.008c1.446,0.975 3.3,1.983 5.225,2.954l-3.187,6.308Z" style="fill:#0b6032;fill-rule:nonzero;"/><path d="M510.433,87.646c1.783,-0.763 3.3,-1.654 4.542,-2.563c0.796,-0.583 1.471,-1.167 2.042,-1.725c2.075,1.213 4.1,2.492 6.071,3.85c-1.004,1.154 -2.313,2.387 -3.933,3.579c-1.642,1.2 -3.629,2.375 -5.95,3.362l-2.771,-6.504Z" style="fill:#0b6032;fill-rule:nonzero;"/><path d="M226.5,396.638l0,-11.013l51.996,-57.492c3.708,-4.096 7.208,-7.646 10.537,-10.658l-56.65,0l0,-10.592l72.7,0l0,10.592l-56.983,62.254l-6.167,6.313l64.829,0l0,10.596l-80.263,0Z" style="fill:#e2be2c;"/><path d="M321.508,396.638l0,-89.754l73.383,0l0,10.592l-59.958,0l0,27.483l56.154,0l0,10.529l-56.154,0l0,30.554l62.321,0l0,10.596l-75.746,0Z" style="fill:#e2be2c;"/><path d="M429.45,346.504l28.879,0c6.121,0 10.942,-0.567 14.392,-1.696c3.475,-1.125 6.1,-2.925 7.896,-5.388c1.796,-2.467 2.696,-5.142 2.696,-8.046c0,-4.246 -1.729,-7.733 -5.225,-10.471c-3.475,-2.737 -8.979,-4.096 -16.521,-4.096l-32.117,0l0,29.696Zm-13.429,50.133l0,-89.754l45.004,0c9.05,0 15.929,0.812 20.629,2.421c4.704,1.608 8.462,4.454 11.3,8.529c2.813,4.096 4.204,8.608 4.204,13.542c0,6.371 -2.313,11.721 -6.992,16.088c-4.658,4.371 -11.867,7.15 -21.604,8.342c3.571,1.504 6.262,2.987 8.108,4.471c3.921,3.175 7.633,7.167 11.154,11.933l17.654,24.429l-16.9,0l-13.421,-18.683c-3.925,-5.371 -7.163,-9.508 -9.717,-12.35c-2.529,-2.863 -4.796,-4.871 -6.804,-6c-2.008,-1.146 -4.042,-1.942 -6.121,-2.4c-1.537,-0.275 -4.021,-0.421 -7.492,-0.421l-15.575,0l0,39.854l-13.429,0Z" style="fill:#e2be2c;"/><path d="M527.979,353.108c0,10.825 3.283,19.329 9.854,25.558c6.592,6.225 14.846,9.337 24.771,9.337c10.117,0 18.433,-3.133 24.958,-9.425c6.521,-6.288 9.808,-15.213 9.808,-26.767c0,-7.296 -1.421,-13.667 -4.208,-19.121c-2.787,-5.458 -6.879,-9.679 -12.242,-12.688c-5.387,-2.987 -11.417,-4.492 -18.104,-4.492c-9.525,0 -17.708,2.883 -24.558,8.671c-6.854,5.771 -10.279,15.425 -10.279,28.925Zm-13.85,-0.192c0,-14.9 4.513,-26.558 13.567,-34.979c9.05,-8.425 20.725,-12.646 35.05,-12.646c9.358,0 17.821,1.988 25.333,5.937c7.517,3.971 13.262,9.488 17.208,16.571c3.946,7.062 5.908,15.108 5.908,24.075c0,9.108 -2.058,17.258 -6.217,24.429c-4.158,7.187 -10.046,12.621 -17.654,16.321c-7.633,3.696 -15.833,5.537 -24.65,5.537c-9.571,0 -18.104,-2.029 -25.621,-6.125c-7.538,-4.075 -13.233,-9.654 -17.113,-16.717c-3.875,-7.042 -5.813,-14.525 -5.813,-22.404Z" style="fill:#e2be2c;"/><path d="M623.958,367.796l12.667,-0.979c0.592,4.492 1.988,8.171 4.183,11.054c2.2,2.883 5.6,5.204 10.212,6.979c4.608,1.775 9.808,2.654 15.575,2.654c5.129,0 9.642,-0.667 13.567,-2.004c3.921,-1.358 6.85,-3.2 8.767,-5.542c1.912,-2.358 2.883,-4.908 2.883,-7.687c0,-2.821 -0.921,-5.267 -2.788,-7.379c-1.846,-2.108 -4.896,-3.867 -9.125,-5.288c-2.742,-0.937 -8.746,-2.4 -18.079,-4.388c-9.313,-1.983 -15.858,-3.846 -19.592,-5.6c-4.846,-2.238 -8.462,-5.037 -10.85,-8.358c-2.363,-3.325 -3.546,-7.042 -3.546,-11.179c0,-4.517 1.442,-8.758 4.35,-12.688c2.908,-3.95 7.162,-6.938 12.738,-8.983c5.6,-2.029 11.796,-3.054 18.625,-3.054c7.537,0 14.158,1.067 19.925,3.221c5.742,2.129 10.162,5.288 13.258,9.446c3.071,4.158 4.75,8.879 4.988,14.146l-12.883,0.858c-0.708,-5.662 -3.046,-9.971 -7.042,-12.854c-3.996,-2.904 -9.879,-4.346 -17.679,-4.346c-8.129,0 -14.037,1.317 -17.771,3.95c-3.712,2.633 -5.579,5.808 -5.579,9.508c0,3.238 1.321,5.892 3.946,7.962c2.6,2.087 9.337,4.221 20.254,6.396c10.921,2.192 18.412,4.096 22.479,5.725c5.908,2.425 10.279,5.475 13.092,9.154c2.812,3.696 4.208,7.958 4.208,12.767c0,4.787 -1.538,9.279 -4.633,13.5c-3.096,4.221 -7.542,7.504 -13.329,9.863c-5.792,2.342 -12.317,3.512 -19.546,3.512c-9.196,0 -16.9,-1.171 -23.092,-3.554c-6.217,-2.363 -11.083,-5.913 -14.629,-10.679c-3.521,-4.742 -5.387,-10.133 -5.554,-16.133Z" style="fill:#e2be2c;"/><path d="M244.737,255.925l25.263,0c4.35,0 7.4,-0.15 9.15,-0.421c3.096,-0.5 5.671,-1.317 7.75,-2.467c2.079,-1.125 3.783,-2.8 5.129,-4.971c1.325,-2.196 2.008,-4.704 2.008,-7.567c0,-3.342 -0.967,-6.25 -2.908,-8.733c-1.938,-2.467 -4.629,-4.2 -8.083,-5.204c-3.425,-0.983 -8.388,-1.483 -14.842,-1.483l-23.467,0l0,30.846Zm0,-41.442l21.954,0c5.933,0 10.213,-0.354 12.813,-1.046c3.4,-0.9 5.979,-2.383 7.704,-4.471c1.725,-2.092 2.6,-4.704 2.6,-7.837c0,-2.967 -0.804,-5.6 -2.413,-7.858c-1.629,-2.275 -3.946,-3.825 -6.925,-4.658c-3,-0.837 -8.154,-1.254 -15.454,-1.254l-20.279,0l0,27.125Zm-13.45,52.033l0,-89.754l38.1,0c7.75,0 13.967,0.921 18.646,2.717c4.704,1.817 8.367,4.617 11.017,8.4c2.646,3.762 3.992,7.712 3.992,11.85c0,3.825 -1.179,7.442 -3.546,10.825c-2.337,3.383 -5.908,6.125 -10.658,8.213c6.146,1.588 10.85,4.304 14.158,8.129c3.308,3.846 4.963,8.379 4.963,13.604c0,4.2 -1.017,8.108 -3.025,11.725c-2.008,3.613 -4.492,6.396 -7.446,8.358c-2.954,1.963 -6.663,3.429 -11.108,4.429c-4.442,1.004 -9.9,1.504 -16.379,1.504l-38.713,0Z" style="fill:#e2be2c;"/><path d="M617.921,266.517l0,-89.754l13.45,0l0,44.513l50.412,-44.513l18.196,0l-42.587,36.363l44.454,53.392l-17.725,0l-36.137,-45.429l-16.612,14.333l0,31.096l-13.45,0Z" style="fill:#e2be2c;"/><path d="M373.908,532.571l-11.229,0l0,-57.133c-2.704,2.058 -6.242,4.117 -10.629,6.175c-4.412,2.054 -8.354,3.604 -11.846,4.625l0,-8.658c6.283,-2.362 11.779,-5.221 16.488,-8.571c4.688,-3.367 8.033,-6.612 9.992,-9.775l7.225,0l0,73.338Z" style="fill:#e2be2c;"/><path d="M450.371,483.446c0,-5.133 -1.704,-9.233 -5.133,-12.242c-3.45,-3.025 -7.563,-4.542 -12.4,-4.542c-4.983,0 -9.329,1.633 -13.037,4.883c-3.708,3.263 -5.562,7.479 -5.562,12.65c0,4.658 1.767,8.433 5.287,11.342c3.513,2.908 7.838,4.354 12.996,4.354c5.217,0 9.479,-1.446 12.825,-4.354c3.367,-2.908 5.025,-6.938 5.025,-12.092Zm-45.996,32.242l10.8,-0.8c0.917,4.046 2.667,6.988 5.242,8.825c2.579,1.821 5.883,2.737 9.929,2.737c3.45,0 6.475,-0.629 9.075,-1.904c2.6,-1.258 4.729,-2.942 6.392,-5.05c1.683,-2.108 3.071,-4.967 4.2,-8.537c1.104,-3.588 1.683,-7.242 1.683,-10.967c0,-0.392 -0.025,-1.004 -0.067,-1.783c-2.258,2.838 -5.325,5.167 -9.204,6.937c-3.896,1.783 -8.117,2.667 -12.633,2.667c-7.583,0 -14,-2.192 -19.242,-6.579c-5.237,-4.387 -7.858,-10.15 -7.858,-17.329c0,-7.412 2.725,-13.362 8.2,-17.887c5.475,-4.521 12.337,-6.783 20.583,-6.783c5.946,0 11.375,1.292 16.321,3.842c4.921,2.55 8.671,6.208 11.225,10.933c2.558,4.729 3.837,11.579 3.837,20.558c0,9.321 -1.258,16.75 -3.792,22.292c-2.558,5.529 -6.329,9.729 -11.338,12.621c-5.025,2.888 -10.883,4.333 -17.638,4.333c-7.158,0 -12.996,-1.579 -17.537,-4.758c-4.537,-3.162 -7.263,-7.621 -8.179,-13.367Z" style="fill:#e2be2c;"/><path d="M473.85,513.292l11.229,-1.192c1.3,5.083 3.492,8.738 6.583,10.983c3.108,2.246 6.879,3.367 11.333,3.367c5.283,0 9.758,-1.462 13.4,-4.387c3.625,-2.925 5.454,-6.546 5.454,-10.863c0,-4.117 -1.683,-7.517 -5.05,-10.187c-3.387,-2.671 -7.667,-4.013 -12.867,-4.013c-2.129,0 -4.771,0.342 -7.925,1.004l1.258,-7.875c0.746,0.067 1.342,0.104 1.808,0.104c4.775,0 9.075,-1.004 12.912,-2.996c3.833,-1.988 5.75,-5.067 5.75,-9.217c0,-3.279 -1.404,-6.017 -4.196,-8.162c-2.792,-2.158 -6.392,-3.246 -10.8,-3.246c-4.367,0 -8.012,1.104 -10.908,3.283c-2.921,2.192 -4.796,5.492 -5.625,9.879l-11.229,-1.6c1.362,-6.021 4.496,-10.679 9.354,-13.979c4.879,-3.296 10.929,-4.962 18.171,-4.962c4.987,0 9.588,0.867 13.788,2.567c4.196,1.717 7.412,4.046 9.65,7.004c2.217,2.963 3.346,6.088 3.346,9.421c0,3.146 -1.067,6.021 -3.196,8.625c-2.133,2.583 -5.263,4.642 -9.417,6.171c5.408,0.987 9.608,3.058 12.613,6.204c2.983,3.129 4.471,7.058 4.471,11.771c0,6.375 -2.896,11.783 -8.733,16.221c-5.817,4.438 -13.187,6.65 -22.092,6.65c-8.033,0 -14.7,-1.904 -20.008,-5.733c-5.304,-3.808 -8.329,-8.754 -9.075,-14.842Z" style="fill:#e2be2c;"/><path d="M603.938,523.95l0,8.621l-60.483,0c-0.083,-2.158 0.342,-4.233 1.3,-6.221c1.533,-3.3 4.004,-6.529 7.392,-9.729c3.408,-3.179 8.308,-6.867 14.7,-11.05c9.95,-6.512 16.683,-11.667 20.175,-15.475c3.496,-3.792 5.242,-7.396 5.242,-10.779c0,-3.554 -1.596,-6.55 -4.771,-8.996c-3.196,-2.433 -7.35,-3.658 -12.462,-3.658c-5.413,0 -9.738,1.292 -12.975,3.896c-3.258,2.583 -4.9,6.171 -4.942,10.746l-11.55,-0.933c0.787,-6.887 3.771,-12.125 8.929,-15.729c5.154,-3.608 12.1,-5.408 20.792,-5.408c8.779,0 15.725,1.954 20.838,5.833c5.133,3.892 7.692,8.704 7.692,14.454c0,2.921 -0.746,5.796 -2.258,8.621c-1.492,2.821 -3.983,5.796 -7.458,8.908c-3.471,3.129 -9.246,7.413 -17.321,12.854c-6.733,4.525 -11.058,7.583 -12.975,9.2c-1.917,1.6 -3.492,3.217 -4.75,4.846l44.888,0Z" style="fill:#e2be2c;"/></g></svg>